<svg width="0" height="0" class="hidden">
  <symbol xmlns="http://www.w3.org/2000/svg"
   viewBox="0 0 201 201"
   id="bitrix"
   version="1.1" >
  <g
     id="layer1"
     transform="translate(-76.221179,-152.76972)">
    <path
       style="fill:#c60c30; fill-opacity:1"
       d="M 157.27568,352.79568 C 139.70521,349.15722 123.3099,341.04088 110.43882,329.60954 77.395638,300.26251 67.183499,254.1601 84.639486,213.13914 88.926214,203.06548 95.895291,192.84219 104.53018,183.96048 l 7.61267,-7.83027 0.53693,45.83027 c 0.51393,43.86776 0.62975,46.07758 2.70484,51.60557 4.15136,11.05915 8.6019,18.10034 16.26354,25.73051 19.79124,19.70997 48.82118,24.629 73.49912,12.45419 23.1956,-11.4435 37.81893,-36.32611 36.1196,-61.46 -1.14146,-16.88261 -6.81905,-29.26246 -19.07714,-41.59721 -9.26896,-9.32693 -20.17418,-15.41929 -32.04688,-17.90344 -12.07962,-2.52744 -11.5,-2.89677 -11.5,7.3278 l 0,8.82715 6.62234,1.22021 c 25.64682,4.72561 42.60888,29.91001 37.26307,55.32627 -1.70737,8.1176 -5.51565,15.28583 -11.62893,21.88891 -9.2904,10.03474 -22.36114,14.83118 -33.77414,14.80915 -18.87159,-0.0364 -34.6297,-10.76021 -42.26723,-26.61851 0,0 -2.00072,-4.53281 -2.64368,-7.3339 -3.78112,-16.47262 -1.36425,-51.14861 -1.36425,-51.14861 l -0.29281,-50.70218 2.99315,-1.54782 c 1.64624,-0.8513 3.22509,-1.54782 3.50856,-1.54782 0.28348,0 0.64332,23.2875 0.79966,51.75 0,0 -3.63474,37.31048 0.85696,51.60841 0.64807,2.06292 1.87838,5.59129 1.87838,5.59129 3.93751,8.02193 10.24821,15.07824 18.44782,18.96221 6.22431,2.94831 9.35814,4.28257 18.56665,4.28257 6.0165,0 11.34645,-1.89912 17.47943,-4.71979 7.22973,-3.32509 15.52319,-12.14094 18.58795,-20.19011 8.44391,-22.17682 -3.31362,-46.03621 -25.96443,-52.68923 -9.25719,-2.71904 -9.0685,-2.86879 -9.0685,7.19725 l 0,8.79259 4.44367,1.1885 c 16.01729,4.28397 20.90468,25.75294 8.33065,36.78433 -4.44255,3.89751 -8.44566,5.62034 -15.4483,5.62034 -7.48261,0 -14.66512,-4.52898 -18.35759,-11.47551 -2.21805,-4.17274 -2.4053,-8.13076 -2.4053,-9.94354 0,-16.74472 -0.36271,-46.85969 -0.36271,-46.85969 l -0.29958,-51.65792 2.29958,-0.57115 c 1.26477,-0.31414 6.37663,-1.09143 11.3597,-1.72733 16.89981,-2.15661 41.90208,3.374 58.69901,12.98447 22.90004,13.1024 40.22757,35.61042 47.4421,61.6261 2.48162,8.94876 2.75823,11.55076 2.75823,25.94621 0,14.33118 -0.28286,17.01927 -2.71196,25.77235 -9.81247,35.35858 -34.77307,60.63503 -70.46342,71.35506 -7.51128,2.25611 -11.03,2.68631 -24.28408,2.96899 -10.69597,0.22812 -17.6284,-0.11017 -22.36718,-1.09147 z"
       id="path821" />
  </g>
  </symbol>
  <symbol fill="none" xmlns="http://www.w3.org/2000/svg" viewBox="0 0 88 87" id="bootstrap">
    <g clip-path="url(#clip0_14_49)">
      <path d="M0 75.7821C0 81.9781 5.08028 87 11.3468 87H76.6528C82.9204 87 88 81.9774 88 75.7821V11.2182C88 5.02187 82.9197 0 76.6532 0H11.3472C5.07959 0 0 5.02255 0 11.2179V75.7818V75.7821Z" fill="#563D7C"></path>
      <path d="M36.4919 38.4832V26.1629H47.4613C48.5063 26.1629 49.5135 26.2489 50.4836 26.4212C51.4536 26.5931 52.312 26.9003 53.0583 27.3431C53.8042 27.786 54.4013 28.4007 54.8492 29.1875C55.2968 29.9746 55.5209 30.9829 55.5209 32.2121C55.5209 34.4255 54.8492 36.0241 53.5058 37.0076C52.1628 37.9915 50.4464 38.4832 48.3568 38.4832H36.4919ZM24.7759 17.1621V69.8379H50.5956C52.9837 69.8379 55.3095 69.5429 57.5731 68.9526C59.8367 68.3623 61.8514 67.4525 63.6176 66.223C65.3834 64.9934 66.789 63.407 67.8337 61.4645C68.8787 59.5216 69.4008 57.2222 69.4008 54.5663C69.4008 51.2709 68.5923 48.4553 66.9757 46.1192C65.3587 43.7828 62.9084 42.1474 59.6249 41.2129C62.0129 40.0819 63.8166 38.6307 65.0355 36.8601C66.2541 35.0895 66.8636 32.8765 66.8636 30.2203C66.8636 27.7612 66.4532 25.6956 65.6323 24.0232C64.8114 22.3512 63.6547 21.0108 62.1621 20.0025C60.6699 18.9942 58.879 18.2686 56.7893 17.8262C54.7 17.3833 52.3866 17.1621 49.8493 17.1621H24.7759ZM36.4919 60.8371V46.3771H49.2523C51.7895 46.3771 53.8293 46.9548 55.3717 48.111C56.9138 49.2668 57.6851 51.1971 57.6851 53.9023C57.6851 55.2797 57.4486 56.4107 56.976 57.296C56.5033 58.1813 55.8691 58.8823 55.073 59.3986C54.2772 59.9151 53.3566 60.2839 52.312 60.5054C51.267 60.7263 50.1728 60.8371 49.0285 60.8371H36.4919Z" fill="white"></path>
    </g>
    <defs>
      <clipPath id="clip0_14_49">
        <rect width="88" height="87" fill="white"></rect>
      </clipPath>
    </defs>
  </symbol>
  <symbol fill="#37c6d0" version="1.1" xmlns="http://www.w3.org/2000/svg" xmlns:xlink="http://www.w3.org/1999/xlink" enable-background="new 0 0 512 512" xml:space="preserve" viewBox="0 0 512 512" id="codepen">
    <g id="c2be471c56fc5b4dd571614bb305209c">
      <path display="inline" d="M159.145,256.002l-33.97,22.721v-45.441L159.145,256.002z M242.423,200.297v-63.325l-106.378,70.912
		l47.519,31.789L242.423,200.297z M375.957,207.884l-106.38-70.912v63.325l58.863,39.376L375.957,207.884z M136.045,304.119
		l106.377,70.913v-63.326l-58.857-39.366L136.045,304.119z M269.577,311.706v63.326l106.38-70.913L328.44,272.34L269.577,311.706z
		 M255.999,223.882l-48.02,32.119l48.02,32.121l48.022-32.121L255.999,223.882z M511.5,256.002
		c0,141.112-114.39,255.497-255.501,255.497C114.895,511.499,0.5,397.114,0.5,256.002C0.5,114.891,114.895,0.501,255.999,0.501
		C397.11,0.501,511.5,114.891,511.5,256.002z M413.978,207.867c0-0.599-0.043-1.188-0.122-1.771c-0.028-0.198-0.074-0.39-0.107-0.59
		c-0.07-0.382-0.137-0.765-0.237-1.139c-0.058-0.225-0.14-0.44-0.212-0.656c-0.107-0.333-0.215-0.664-0.348-0.989
		c-0.092-0.224-0.205-0.448-0.304-0.664c-0.146-0.308-0.296-0.607-0.461-0.897c-0.122-0.217-0.259-0.424-0.388-0.632
		c-0.183-0.282-0.369-0.557-0.572-0.823c-0.15-0.199-0.304-0.398-0.47-0.589c-0.212-0.249-0.437-0.499-0.673-0.732
		c-0.18-0.183-0.354-0.365-0.54-0.531c-0.246-0.225-0.508-0.44-0.773-0.649c-0.2-0.157-0.399-0.315-0.611-0.465
		c-0.078-0.05-0.149-0.116-0.229-0.166l-144.398-96.269c-4.563-3.042-10.501-3.042-15.063,0l-144.402,96.269
		c-0.076,0.05-0.146,0.116-0.221,0.166c-0.212,0.149-0.415,0.308-0.615,0.465c-0.266,0.209-0.524,0.425-0.77,0.649
		c-0.187,0.166-0.364,0.349-0.544,0.531c-0.236,0.233-0.456,0.483-0.677,0.732c-0.158,0.19-0.315,0.39-0.465,0.589
		c-0.199,0.267-0.391,0.541-0.57,0.823c-0.138,0.208-0.266,0.415-0.39,0.632c-0.166,0.29-0.315,0.59-0.462,0.897
		c-0.104,0.216-0.208,0.44-0.303,0.664c-0.133,0.325-0.245,0.656-0.35,0.989c-0.074,0.216-0.148,0.432-0.211,0.656
		c-0.101,0.374-0.166,0.757-0.238,1.139c-0.032,0.2-0.082,0.392-0.107,0.59c-0.079,0.582-0.125,1.172-0.125,1.771v96.269
		c0,0.599,0.046,1.188,0.125,1.778c0.025,0.191,0.075,0.391,0.107,0.582c0.072,0.383,0.138,0.765,0.238,1.139
		c0.063,0.225,0.137,0.44,0.211,0.656c0.104,0.332,0.217,0.665,0.35,0.999c0.095,0.224,0.199,0.438,0.303,0.655
		c0.146,0.308,0.296,0.606,0.462,0.905c0.124,0.208,0.252,0.416,0.39,0.624c0.18,0.282,0.371,0.557,0.57,0.822
		c0.149,0.208,0.307,0.399,0.465,0.59c0.221,0.249,0.44,0.499,0.677,0.731c0.18,0.184,0.357,0.365,0.544,0.532
		c0.245,0.225,0.504,0.439,0.77,0.647c0.2,0.158,0.403,0.316,0.615,0.466c0.075,0.05,0.145,0.116,0.221,0.166l144.402,96.27
		c2.281,1.521,4.908,2.284,7.53,2.284c2.63,0,5.252-0.764,7.533-2.284l144.398-96.27c0.079-0.05,0.15-0.116,0.229-0.166
		c0.212-0.149,0.411-0.308,0.611-0.466c0.266-0.208,0.527-0.423,0.773-0.647c0.186-0.167,0.36-0.349,0.54-0.532
		c0.236-0.232,0.461-0.482,0.673-0.731c0.166-0.19,0.319-0.382,0.47-0.59c0.203-0.266,0.39-0.54,0.572-0.822
		c0.129-0.208,0.266-0.416,0.388-0.624c0.165-0.299,0.315-0.598,0.461-0.905c0.099-0.217,0.212-0.432,0.304-0.655
		c0.133-0.334,0.24-0.667,0.348-0.999c0.072-0.216,0.154-0.432,0.212-0.656c0.101-0.374,0.167-0.756,0.237-1.139
		c0.033-0.191,0.079-0.391,0.107-0.582c0.079-0.59,0.122-1.18,0.122-1.778V207.867z M386.826,278.723v-45.441l-33.965,22.72
		L386.826,278.723z"></path>
    </g>
  </symbol>
  <symbol fill="none" xmlns="http://www.w3.org/2000/svg" viewBox="0 0 120 119" id="css">
    <path d="M22.1325 101.154L13.71 7.4375H106.29L97.8562 101.139L59.9437 111.562L22.1325 101.154Z" fill="#1572B6"></path>
    <path d="M60 103.597L90.6375 95.174L97.845 15.1018H60V103.597Z" fill="#33A9DC"></path>
    <path d="M60 49.054H75.3375L76.395 37.2842H60V25.7895H89.0625L88.785 28.8724L85.9387 60.5487H60V49.054Z" fill="white"></path>
    <path d="M60.0713 78.9044L60.0188 78.9193L47.1113 75.4609L46.2863 66.2942H34.65L36.2738 84.3413L60.015 90.8788L60.0713 90.8639V78.9044Z" fill="#EBEBEB"></path>
    <path d="M74.3513 60.0615L72.9563 75.4534L60.03 78.9119V90.8714L83.79 84.3412L83.9663 82.4001L85.98 60.0615H74.3513Z" fill="white"></path>
    <path d="M60.0413 25.7895V37.2842H32.0438L31.8113 34.6996L31.2825 28.8724L31.005 25.7895H60.0413ZM60 49.054V60.5487H47.2538L47.0213 57.9641L46.4963 52.1369L46.2188 49.054H60Z" fill="#EBEBEB"></path>
  </symbol>
  <symbol fill="none" xmlns="http://www.w3.org/2000/svg" viewBox="0 0 450 412" id="figma">
<g clip-path="url(#clip0_102_1483)">
<path d="M150.586 412C191.986 412 225.586 381.237 225.586 343.333V274.667H150.586C109.186 274.667 75.5859 305.429 75.5859 343.333C75.5859 381.237 109.186 412 150.586 412Z" fill="#0ACF83"/>
<path d="M75.5859 206C75.5859 168.096 109.186 137.333 150.586 137.333H225.586V274.667H150.586C109.186 274.667 75.5859 243.904 75.5859 206Z" fill="#A259FF"/>
<path d="M75.5859 68.6667C75.5859 30.7627 109.186 0 150.586 0H225.586V137.333H150.586C109.186 137.333 75.5859 106.571 75.5859 68.6667Z" fill="#F24E1E"/>
<path d="M225.586 0H300.586C341.986 0 375.586 30.7627 375.586 68.6667C375.586 106.571 341.986 137.333 300.586 137.333H225.586V0Z" fill="#FF7262"/>
<path d="M375.586 206C375.586 243.904 341.986 274.667 300.586 274.667C259.186 274.667 225.586 243.904 225.586 206C225.586 168.096 259.186 137.333 300.586 137.333C341.986 137.333 375.586 168.096 375.586 206Z" fill="#1ABCFE"/>
</g>
<defs>
<clipPath id="clip0_102_1483">
<rect width="450" height="412" fill="white"/>
</clipPath>
</defs>
  </symbol>
  <symbol viewBox="0 0 112 112" fill="none" xmlns="http://www.w3.org/2000/svg" id="vscode">
<path d="M101.535 17.605L81.3541 7.88899C80.2144 7.33948 78.932 7.15814 77.6847 7.37011C76.4373 7.58208 75.2868 8.17686 74.3926 9.07199L8.3301 69.3C7.52857 70.0273 7.04878 71.0432 6.99627 72.1243C6.94376 73.2053 7.32283 74.2629 8.0501 75.0645C8.1376 75.159 8.2251 75.25 8.3196 75.334L13.7131 80.234C14.4179 80.8754 15.325 81.2497 16.2771 81.2919C17.2291 81.3341 18.1658 81.0416 18.9246 80.465L98.4971 20.125C99.0981 19.6689 99.8145 19.3897 100.566 19.3186C101.317 19.2476 102.073 19.3877 102.749 19.7231C103.425 20.0585 103.993 20.5758 104.391 21.217C104.789 21.8581 105 22.5975 105 23.352V23.1175C105 21.9656 104.675 20.8372 104.062 19.862C103.449 18.8868 102.573 18.1045 101.535 17.605Z" fill="#0065A9"/>
<path d="M101.535 94.395L81.3541 104.115C80.2141 104.662 78.9321 104.843 77.6851 104.631C76.4381 104.419 75.2876 103.825 74.3926 102.932L8.3301 42.7C7.52857 41.9727 7.04878 40.9568 6.99627 39.8758C6.94376 38.7947 7.32283 37.7371 8.0501 36.9355C8.1376 36.841 8.2251 36.75 8.3196 36.666L13.7131 31.766C14.4186 31.1219 15.3278 30.7459 16.2822 30.7037C17.2366 30.6615 18.1755 30.9557 18.9351 31.535L98.4971 91.875C99.0981 92.3311 99.8145 92.6104 100.566 92.6814C101.317 92.7524 102.073 92.6123 102.749 92.2769C103.425 91.9415 103.993 91.4242 104.391 90.783C104.789 90.1419 105 89.4025 105 88.648V88.9C104.996 90.0488 104.669 91.1733 104.057 92.1451C103.444 93.1168 102.57 93.8965 101.535 94.395Z" fill="#007ACC"/>
<path d="M81.3539 104.115C80.2139 104.662 78.9319 104.843 77.6849 104.631C76.4379 104.419 75.2874 103.825 74.3924 102.932C74.895 103.428 75.5329 103.764 76.226 103.899C76.9192 104.034 77.6368 103.962 78.2889 103.691C78.941 103.42 79.4987 102.963 79.892 102.376C80.2853 101.79 80.4968 101.1 80.4999 100.394V11.606C80.5005 10.8965 80.2905 10.2028 79.8965 9.61277C79.5025 9.02274 78.9423 8.56291 78.2867 8.29155C77.6312 8.02019 76.9098 7.9495 76.2141 8.08843C75.5183 8.22737 74.8795 8.56968 74.3784 9.072C75.2728 8.1772 76.423 7.58239 77.6702 7.36983C78.9173 7.15727 80.1997 7.33747 81.3399 7.8855L101.517 17.5875C102.559 18.0845 103.438 18.8658 104.054 19.8412C104.67 20.8165 104.998 21.9463 105 23.1V88.9C105 90.0528 104.675 91.1823 104.061 92.1582C103.447 93.1341 102.571 93.9168 101.531 94.416L81.3539 104.115Z" fill="#1F9CF0"/>
</symbol>
  <symbol fill="none" xmlns="http://www.w3.org/2000/svg" viewBox="0 0 512 512" id="github">
    <path fill-rule="evenodd" clip-rule="evenodd" d="M256.002 12C117.948 12 6 123.927 6 262.002C6 372.46 77.6332 466.171 176.967 499.228C189.461 501.543 194.048 493.805 194.048 487.202C194.048 481.24 193.816 461.547 193.709 440.657C124.158 455.78 109.482 411.16 109.482 411.16C98.1093 382.263 81.7234 374.579 81.7234 374.579C59.0408 359.063 83.4332 359.382 83.4332 359.382C108.538 361.145 121.757 385.144 121.757 385.144C144.054 423.364 180.241 412.315 194.508 405.927C196.751 389.769 203.23 378.74 210.38 372.497C154.851 366.175 96.4782 344.739 96.4782 248.945C96.4782 221.65 106.244 199.348 122.237 181.841C119.641 175.544 111.084 150.116 124.659 115.68C124.659 115.68 145.652 108.961 193.427 141.307C213.369 135.767 234.756 132.989 256.002 132.894C277.248 132.989 298.652 135.767 318.631 141.307C366.348 108.961 387.312 115.68 387.312 115.68C400.92 150.116 392.359 175.544 389.763 181.841C405.793 199.348 415.493 221.65 415.493 248.945C415.493 344.966 357.008 366.109 301.338 372.298C310.306 380.056 318.296 395.271 318.296 418.595C318.296 452.046 318.006 478.967 318.006 487.202C318.006 493.855 322.506 501.65 335.178 499.195C434.458 466.101 506 372.422 506 262.002C506 123.927 394.069 12 256.002 12ZM99.6339 368.133C99.0833 369.375 97.1292 369.748 95.3491 368.895C93.5358 368.079 92.5174 366.386 93.1052 365.14C93.6434 363.861 95.6016 363.505 97.4108 364.362C99.2282 365.177 100.263 366.887 99.6339 368.133ZM111.931 379.106C110.739 380.211 108.408 379.698 106.827 377.951C105.191 376.208 104.885 373.877 106.094 372.755C107.323 371.65 109.584 372.167 111.223 373.91C112.859 375.674 113.177 377.988 111.931 379.106ZM120.368 393.145C118.836 394.209 116.331 393.211 114.783 390.988C113.251 388.765 113.251 386.099 114.816 385.031C116.368 383.963 118.836 384.923 120.405 387.13C121.933 389.39 121.933 392.056 120.368 393.145ZM134.635 409.405C133.265 410.916 130.347 410.51 128.21 408.448C126.024 406.432 125.416 403.571 126.79 402.06C128.177 400.545 131.112 400.972 133.265 403.017C135.434 405.029 136.097 407.91 134.635 409.405ZM153.075 414.894C152.471 416.852 149.66 417.742 146.828 416.91C144.001 416.053 142.15 413.759 142.721 411.78C143.309 409.81 146.133 408.882 148.985 409.773C151.808 410.625 153.663 412.902 153.075 414.894ZM174.06 417.222C174.131 419.284 171.73 420.993 168.757 421.031C165.768 421.097 163.35 419.429 163.317 417.4C163.317 415.318 165.665 413.624 168.654 413.575C171.626 413.517 174.06 415.173 174.06 417.222ZM194.676 416.432C195.032 418.444 192.966 420.51 190.014 421.06C187.112 421.59 184.426 420.348 184.057 418.353C183.697 416.291 185.8 414.225 188.698 413.691C191.654 413.178 194.299 414.387 194.676 416.432Z" fill="#696969"></path>
  </symbol>
  <symbol fill="none" xmlns="http://www.w3.org/2000/svg" viewBox="0 0 512 512" id="github-md">
<path fill-rule="evenodd" clip-rule="evenodd" d="M256.002 12C117.948 12 6 123.927 6 262.002C6 372.46 77.6332 466.171 176.967 499.228C189.461 501.543 194.048 493.805 194.048 487.202C194.048 481.24 193.816 461.547 193.709 440.657C124.158 455.78 109.482 411.16 109.482 411.16C98.1093 382.263 81.7234 374.579 81.7234 374.579C59.0408 359.063 83.4332 359.382 83.4332 359.382C108.538 361.145 121.757 385.144 121.757 385.144C144.054 423.364 180.241 412.315 194.508 405.927C196.751 389.769 203.23 378.74 210.38 372.497C154.851 366.175 96.4782 344.739 96.4782 248.945C96.4782 221.65 106.244 199.348 122.237 181.841C119.641 175.544 111.084 150.116 124.659 115.68C124.659 115.68 145.652 108.961 193.427 141.307C213.369 135.767 234.756 132.989 256.002 132.894C277.248 132.989 298.652 135.767 318.631 141.307C366.348 108.961 387.312 115.68 387.312 115.68C400.92 150.116 392.359 175.544 389.763 181.841C405.793 199.348 415.493 221.65 415.493 248.945C415.493 344.966 357.008 366.109 301.338 372.298C310.306 380.056 318.296 395.271 318.296 418.595C318.296 452.046 318.006 478.967 318.006 487.202C318.006 493.855 322.506 501.65 335.178 499.195C434.458 466.101 506 372.422 506 262.002C506 123.927 394.069 12 256.002 12ZM99.6339 368.133C99.0833 369.375 97.1292 369.748 95.3491 368.895C93.5358 368.079 92.5174 366.386 93.1052 365.14C93.6434 363.861 95.6016 363.505 97.4108 364.362C99.2282 365.177 100.263 366.887 99.6339 368.133ZM111.931 379.106C110.739 380.211 108.408 379.698 106.827 377.951C105.191 376.208 104.885 373.877 106.094 372.755C107.323 371.65 109.584 372.167 111.223 373.91C112.859 375.674 113.177 377.988 111.931 379.106ZM120.368 393.145C118.836 394.209 116.331 393.211 114.783 390.988C113.251 388.765 113.251 386.099 114.816 385.031C116.368 383.963 118.836 384.923 120.405 387.13C121.933 389.39 121.933 392.056 120.368 393.145ZM134.635 409.405C133.265 410.916 130.347 410.51 128.21 408.448C126.024 406.432 125.416 403.571 126.79 402.06C128.177 400.545 131.112 400.972 133.265 403.017C135.434 405.029 136.097 407.91 134.635 409.405ZM153.075 414.894C152.471 416.852 149.66 417.742 146.828 416.91C144.001 416.053 142.15 413.759 142.721 411.78C143.309 409.81 146.133 408.882 148.985 409.773C151.808 410.625 153.663 412.902 153.075 414.894ZM174.06 417.222C174.131 419.284 171.73 420.993 168.757 421.031C165.768 421.097 163.35 419.429 163.317 417.4C163.317 415.318 165.665 413.624 168.654 413.575C171.626 413.517 174.06 415.173 174.06 417.222ZM194.676 416.432C195.032 418.444 192.966 420.51 190.014 421.06C187.112 421.59 184.426 420.348 184.057 418.353C183.697 416.291 185.8 414.225 188.698 413.691C191.654 413.178 194.299 414.387 194.676 416.432Z" fill="#3E75C3"/>
  </symbol>
  <symbol fill="none" xmlns="http://www.w3.org/2000/svg" viewBox="0 0 512 512" id="gitlub">
    <g clip-path="url(#clip0_331_678)">
      <path d="M503.389 204.459L502.672 202.626L433.067 21.0093C431.653 17.4474 429.149 14.4232 425.915 12.3684C422.656 10.3116 418.84 9.31693 414.992 9.52171C411.144 9.7265 407.454 11.1206 404.432 13.5117C401.438 15.9122 399.28 19.1968 398.264 22.897L351.205 166.918H160.814L113.756 22.897C112.74 19.1968 110.581 15.9122 107.588 13.5117C104.579 11.1046 100.892 9.69994 97.0437 9.4949C93.1957 9.28986 89.38 10.2947 86.1322 12.3684C82.8837 14.4148 80.3699 17.4408 78.9536 21.0093L9.26903 202.864L8.55117 204.672C-1.45205 230.864 -2.68166 259.595 5.04724 286.546C12.7761 313.496 29.0458 337.21 51.4094 354.118L51.6754 354.304L52.2869 354.782L158.449 434.251L210.931 474L242.837 498.166C246.584 500.998 251.154 502.531 255.851 502.531C260.547 502.531 265.117 500.998 268.866 498.166L300.77 474L353.278 434.251L460.053 354.304L460.344 354.091C482.784 337.198 499.118 313.466 506.883 286.472C514.65 259.48 513.422 230.694 503.389 204.459Z" fill="#E24329"></path>
      <path d="M503.392 204.459L502.675 202.626C468.728 209.621 436.739 224.008 408.982 244.765L256.133 360.605C308.243 400.008 353.602 434.251 353.602 434.251L460.374 354.304L460.667 354.091C483.051 337.157 499.322 313.403 507.029 286.414C514.736 259.424 513.459 230.661 503.392 204.459Z" fill="#FC6D26"></path>
      <path d="M158.531 434.251L210.934 474L242.838 498.166C246.587 500.998 251.155 502.531 255.853 502.531C260.55 502.531 265.12 500.998 268.867 498.166L300.771 474L353.282 434.251C353.282 434.251 307.923 400.008 255.813 360.605L158.531 434.251Z" fill="#FCA326"></path>
      <path d="M102.962 244.872C75.2122 224.107 43.2197 209.728 9.26933 202.758L8.55147 204.566C-1.47745 230.771 -2.72058 259.525 5.00926 286.498C12.7391 313.47 29.0234 337.202 51.4098 354.118L51.6757 354.304L52.2872 354.782L158.449 434.251L256.13 360.605L102.962 244.872Z" fill="#FC6D26"></path>
    </g>
    <defs>
      <clipPath id="clip0_331_678">
        <rect width="512" height="512" fill="white"></rect>
      </clipPath>
    </defs>
  </symbol>
  <symbol fill="none" xmlns="http://www.w3.org/2000/svg" viewBox="0 0 512 512" id="gulp">
    <g clip-path="url(#clip0_336_1520)">
      <path fill-rule="evenodd" clip-rule="evenodd" d="M317.276 490.761L322.07 410.875L335.307 388.278C335.307 388.278 305.178 400.603 254.738 400.603C204.296 400.603 174.624 388.506 174.624 388.506L189.459 413.156L194.708 490.761C194.708 499.08 222.145 505.824 255.992 505.824C289.837 505.824 317.276 499.08 317.276 490.761Z" fill="#D34A47"></path>
      <path fill-rule="evenodd" clip-rule="evenodd" d="M302.153 117.708L312.216 77.9337L367.941 19.2977L353.254 6.78796L294.257 69.25L282.573 116.77C274.108 116.484 265.273 116.331 256.184 116.331C194.049 116.331 143.679 123.413 143.679 132.146C143.679 140.88 194.049 147.96 256.184 147.96C318.317 147.96 368.686 140.88 368.686 132.146C368.686 125.715 341.368 120.179 302.153 117.708Z" fill="#D34A47"></path>
      <path fill-rule="evenodd" clip-rule="evenodd" d="M296.299 139.983C296.299 139.983 294.12 140.472 287.709 140.499C281.297 140.526 276.744 140.458 274.93 138.806C274.443 138.362 274.176 137.481 274.178 136.885C274.184 135.75 274.989 135.081 276.016 134.663L276.987 136.186C276.564 136.331 276.323 136.504 276.322 136.687C276.319 137.549 282.879 138.14 287.897 138.076C292.915 138.014 298.979 137.601 298.984 136.751C298.984 136.494 298.526 136.252 297.728 136.061L298.694 134.549C299.995 134.952 301.13 135.732 301.127 137.082C301.115 139.377 298.194 139.726 296.299 139.983Z" fill="white"></path>
      <path fill-rule="evenodd" clip-rule="evenodd" d="M367.831 19.4134C369.232 17.7951 367.106 13.6555 363.082 10.1687C359.057 6.68375 354.657 5.16961 353.254 6.78799C351.852 8.40636 353.979 12.5459 358.004 16.0309C362.028 19.5168 366.429 21.0327 367.831 19.4134Z" fill="#D34A47"></path>
      <path fill-rule="evenodd" clip-rule="evenodd" d="M314.595 295.633C313.275 282.927 342.389 264.524 334.917 263.935C318.832 264.854 310.827 282.784 302.734 301.564C299.769 308.446 289.621 337.794 282.966 334.181C276.312 330.57 291.592 306.436 295.875 292.104C290.933 295.728 272.81 309.808 268.14 296.622C260.631 302.999 244.586 306.454 246.396 289.702C242.401 296.778 233.436 306.657 222.674 302.552C208.542 297.163 230.863 252.144 236.413 254.415C241.965 256.685 235.293 266.941 233.546 270.923C229.703 279.687 225.264 290.705 228.23 292.96C233.31 296.824 247.135 278.343 247.443 277.936C250.028 274.52 257.395 252.171 263.332 254.738C269.269 257.304 248.523 286.812 256.28 292.668C257.845 293.85 264.246 291.939 268.14 287.726C270.659 285.001 269.792 278.965 278.191 258.936C286.589 238.909 294.074 213.967 299.834 215.867C305.594 217.767 300.846 230.568 298.78 235.34C289.084 257.738 272.317 294.74 280.224 291.939C288.132 289.139 292.249 288.974 299.992 279.913C307.735 270.852 307.378 255.928 312.539 256.245C317.701 256.563 316.835 261.348 315.583 264.992C320.663 259.179 339.661 246.937 344.247 259.062C349.68 273.416 317.066 294.15 325.198 293.093C333.126 292.062 345.971 283.927 351.455 276.53L366.55 140.818C366.55 140.818 351.36 153.389 254.723 153.389C158.084 153.389 144.466 141.079 144.466 141.079L157.317 264.952C164.139 245.564 180.337 206.349 205.871 207.665C217.486 208.264 232.991 230.629 219.709 231.387C214.087 231.707 213.517 220.223 206.86 218.537C202.056 217.32 195.367 221.225 191.045 225.457C182.425 233.893 163.885 267.178 166.335 283.773C169.456 304.929 195.529 276.421 199.941 267.958C203.048 261.996 205.147 244.331 211.942 246.185C218.738 248.038 211.349 266.268 206.423 282.385C200.89 300.483 197.981 319.574 191.045 317.378C184.109 315.184 195.407 291.82 194.998 287.726C188.479 293.741 176.468 308.969 161.102 301.432L169.084 378.356C169.084 378.356 190.297 395.117 254.199 395.117C318.101 395.117 340.099 378.617 340.099 378.617L350.01 289.521C341.901 297.417 316.239 311.438 314.595 295.633Z" fill="#D34A47"></path>
    </g>
    <defs>
      <clipPath id="clip0_336_1520">
        <rect width="227" height="500" fill="white" transform="translate(143 6)"></rect>
      </clipPath>
    </defs>
  </symbol>
  <symbol fill="none" xmlns="http://www.w3.org/2000/svg" viewBox="0 0 120 120" id="html5">
    <path d="M22.1325 102.004L13.7063 7.5H106.294L97.8563 101.989L59.9438 112.5L22.1325 102.004Z" fill="#E44F26"></path>
    <path d="M60 104.467L90.6375 95.9737L97.845 15.2287H60V104.467Z" fill="#F1662A"></path>
    <path d="M60 50.2763H44.6625L43.605 38.4075H60V26.8163H30.9375L31.215 29.9288L34.0613 61.8675H60V50.2763ZM60 80.3775L59.9475 80.3925L47.04 76.9088L46.215 67.665H34.5787L36.2025 85.86L59.9475 92.4525L60 92.4375V80.3775Z" fill="#EBEBEB"></path>
    <path d="M59.9587 50.2763V61.8675H74.2312L72.8887 76.9013L59.9587 80.3888V92.4488L83.7225 85.86L83.895 83.9025L86.6175 53.3888L86.9025 50.2763H59.9587ZM59.9587 26.8163V38.4075H87.9562L88.1887 35.805L88.7175 29.9288L88.995 26.8163H59.9587Z" fill="white"></path>
  </symbol>
  <symbol fill="none" xmlns="http://www.w3.org/2000/svg" viewBox="0 0 512 512" id="jq">
<g id="Type=Default, showSymbol=True, showText=False">
<g id="Union">
<path d="M440.703 190.733C458.926 186.852 500.198 155.802 507.366 139.363C448.022 179.748 410.289 168.424 391.265 162.714C390.455 162.471 389.679 162.238 388.936 162.02C384.933 160.874 375.668 156.714 367.034 151.525C366.436 151.165 365.847 150.811 365.267 150.463C347.264 139.655 337.928 134.05 323.464 113.021C315.262 101.105 307.064 82.1665 304.375 71.3133C299.935 53.3699 301.165 25.7642 309.603 2C281.595 26.9944 277.278 75.2777 286.666 107.2C287.857 111.243 294.511 127.123 298.112 132.944C322.318 171.883 368.538 206.104 440.703 190.733Z" fill="#21609B"/>
<path d="M389.214 299.299C435.323 299.618 483.483 278.068 512 247.812C487.05 311.147 414.807 351.86 317.922 338.91C236.805 328.056 159.529 246.425 151.567 164.631C145.746 105.103 166.496 69.5743 200.683 26.4799C188.801 49.0196 184.361 66.4038 183.254 77.4919C170.265 206.261 286.117 298.628 389.214 299.299Z" fill="#21609B"/>
<path d="M500.118 378.52L497.825 384.458C458.768 460.504 389.572 507.166 290.869 509.223C244.728 510.174 200.761 498.337 172.043 485.459C110.06 457.613 57.9296 405.969 29.4573 350.791C-11.3836 271.693 -18.7477 161.662 66.1716 79.4766C66.8259 79.4766 64.2509 83.9317 61.676 88.3868C59.1011 92.8419 56.5262 97.297 57.1804 97.297L54.8431 104.902C-6.3512 296.486 182.18 460.666 365.45 441.89C409.495 437.377 465.662 413.255 500.118 378.52Z" fill="#21609B"/>
</g>
</g>
  </symbol>
  <symbol fill="none" xmlns="http://www.w3.org/2000/svg" viewBox="0 0 120 120" id="js">
    <path d="M7.5 7.5H112.5V112.5H7.5V7.5Z" fill="#F5DE19"></path>
    <path d="M78.0338 89.5312C78.9284 91.3485 80.3183 92.8759 82.0434 93.9375C83.7684 94.9991 85.7584 95.5515 87.7838 95.5313C91.8713 95.5313 94.485 93.4875 94.485 90.6562C94.485 87.2812 91.8 86.0738 87.3 84.105L84.8325 83.0475C77.7075 80.0138 72.9825 76.215 72.9825 68.1825C72.9825 60.7838 78.6075 55.1475 87.4313 55.1475C90.2877 54.9412 93.1416 55.5805 95.637 56.9856C98.1324 58.3907 100.159 60.4994 101.464 63.0488L93.75 67.98C93.2476 66.716 92.3728 65.6345 91.2416 64.879C90.1105 64.1236 88.7764 63.7298 87.4163 63.75C86.8229 63.6906 86.2236 63.7555 85.6567 63.9404C85.0897 64.1254 84.5675 64.4265 84.1234 64.8244C83.6792 65.2224 83.3228 65.7085 83.0769 66.2518C82.831 66.7951 82.7009 67.3837 82.695 67.98C82.695 70.9388 84.5288 72.1388 88.7625 73.98L91.23 75.0375C99.615 78.6338 104.355 82.2975 104.355 90.5363C104.355 99.42 97.3763 104.287 88.005 104.287C84.3537 104.52 80.713 103.691 77.5223 101.901C74.3317 100.11 71.7274 97.4342 70.0238 94.1963L78.0338 89.5312ZM43.1775 90.3863C44.7263 93.135 46.1363 95.46 49.5263 95.46C52.7663 95.46 54.8138 94.1925 54.8138 89.2612V55.71H64.68V89.3925C64.68 99.6075 58.68 104.257 49.9463 104.257C46.8591 104.426 43.7931 103.657 41.1513 102.051C38.5096 100.444 36.4157 98.0761 35.145 95.2575L43.1775 90.3863Z" fill="black"></path>
  </symbol>
  <symbol fill="none" xmlns="http://www.w3.org/2000/svg" viewBox="0 0 250 250" id="mjml">
<g id="Type=Default">
<circle id="Oval-38-Copy-9" cx="221.516" cy="45.0136" r="25.4675" fill="#F45E43"/>
<rect id="Rectangle-path" x="2.92969" y="19.6948" width="168.42" height="50.7986" rx="20.495" fill="#F45E43"/>
<circle id="Oval-38-Copy-9-2" cx="28.3971" cy="125.679" r="25.4675" fill="#F63A4D"/>
<path id="Rectangle-path_2" fill-rule="evenodd" clip-rule="evenodd" d="M246.984 125.76C246.984 139.787 235.606 151.159 221.587 151.159H103.96C89.9341 151.159 78.5637 139.79 78.5637 125.76V125.76C78.5637 111.732 89.9415 100.36 103.96 100.36H221.587C235.613 100.36 246.984 111.729 246.984 125.76V125.76V125.76Z" fill="#F45E43"/>
<circle id="Oval-38-Copy-9-3" cx="221.516" cy="206.134" r="25.4675" fill="#F45E43"/>
<rect id="Rectangle-path_3" x="2.92969" y="180.654" width="168.42" height="50.7986" rx="20.495" fill="#F45E43"/>
</g>
  </symbol>
  <symbol fill="none" xmlns="http://www.w3.org/2000/svg" viewBox="0 0 512 512" id="mysql">
    <path d="M400.327 398.836C417.998 391.362 439.066 388.642 466.251 389.32C465.486 384.233 455.772 378.192 448.655 373.766C446.266 372.28 444.17 370.977 442.803 369.952C431.929 362.137 420.375 353.979 408.823 346.846C405.101 344.572 399.743 342.675 394.586 340.849C391.269 339.674 388.036 338.529 385.375 337.332C382.657 336.224 378.954 335.116 374.957 333.92C365.462 331.079 354.303 327.74 350.715 322.721C341.475 310.708 335.027 296.183 328.588 281.678C327.923 280.179 327.257 278.681 326.589 277.186C323.219 269.481 319.469 261.625 315.698 253.724C311.487 244.899 307.249 236.02 303.483 227.234C301.842 223.656 300.594 220.273 299.366 216.942C297.796 212.684 296.257 208.512 293.969 204.128C269.161 156.216 232.465 116.117 187.949 87.914C173.336 78.7388 157.028 70.2415 139.016 64.4665C133.516 62.8172 127.423 62.5517 121.27 62.2836C116.018 62.0547 110.723 61.824 105.716 60.7295H98.5786C94.4586 59.585 90.8009 56.2812 87.3985 53.2079C85.7501 51.719 84.1617 50.2843 82.6095 49.1753C72.0743 42.0403 61.5412 37.2799 48.9679 32.185C44.551 30.1471 31.9778 25.3889 27.5607 29.1281C24.8406 29.8081 23.4826 30.8271 22.8026 33.5451C20.0846 37.6232 22.4658 43.7393 24.1627 47.4763C27.5308 54.6619 31.7898 59.9188 36.154 65.3057C38.3944 68.071 40.6625 70.8705 42.852 73.9828C43.8978 75.4589 44.9881 76.9684 46.0968 78.5032C51.1122 85.4469 56.5024 92.9095 59.8423 100.146C64.5552 110.299 67.9144 121.031 71.2614 131.724C74.1882 141.075 77.1057 150.396 80.9106 159.273C83.9676 166.41 88.7257 174.564 93.1427 181.021C94.5281 182.911 96.3341 184.614 98.1623 186.337C101.266 189.263 104.433 192.249 105.716 196.313C109.021 201.82 102.954 217.59 99.2673 227.172C98.4045 229.415 97.6721 231.319 97.2208 232.672C88.3846 260.535 90.0836 299.273 100.278 323.399C100.642 324.249 101.004 325.112 101.368 325.982C105.081 334.85 109.066 344.369 118.967 346.846C119.275 346.538 119.305 346.439 119.371 346.392C119.451 346.335 119.584 346.353 120.327 346.166C120.824 342.26 121.248 338.384 121.665 334.562C123.244 320.098 124.737 306.414 129.841 294.856C132.273 288.888 136.286 284.07 140.196 279.375C142.298 276.851 144.37 274.363 146.152 271.75C148.308 273.043 149.096 275.978 149.905 278.993C150.371 280.729 150.844 282.491 151.59 283.982C151.911 284.747 152.233 285.517 152.558 286.292C156.701 296.188 161.16 306.834 166.201 316.603C177.414 338.351 189.989 359.417 204.259 378.447C209.015 385.243 215.814 392.72 221.93 398.836C222.86 399.65 223.83 400.344 224.785 401.028C226.621 402.343 228.403 403.62 229.745 405.632H230.425V406.653C223.974 404.287 219.02 399.199 214.184 394.232C211.379 391.35 208.613 388.509 205.617 386.265C190.326 374.71 171.978 357.379 161.443 340.73C158.125 333.583 154.615 326.627 151.057 319.575C149.879 317.24 148.695 314.894 147.512 312.526C147.512 312.526 147.513 312.185 147.512 311.846C146.213 313.578 146.018 315.309 145.783 317.393C145.65 318.579 145.503 319.88 145.133 321.361C143.873 326.205 143.249 331.243 142.646 336.113C141.134 348.319 139.753 359.464 128.822 363.836C111.493 370.973 98.5788 352.28 93.1428 343.787C75.8136 315.584 71.0554 268.011 83.2875 229.613C84.2339 226.658 84.8923 223.497 85.5488 220.345C86.7794 214.436 88.0034 208.56 91.1048 204.128C90.423 200.044 88.0761 197.929 85.7826 195.861C84.6412 194.832 83.5129 193.815 82.6097 192.574C77.8515 186.119 73.7756 178.642 70.0365 171.507C64.6033 160.901 60.3537 148.718 56.2352 136.911C54.9434 133.208 53.6646 129.542 52.3662 125.973C51.2062 122.991 50.4507 120.008 49.7052 117.065C48.9217 113.971 48.1493 110.922 46.9301 107.963C43.7179 101.003 38.3988 94.0445 33.4605 87.584C32.1293 85.8425 30.8258 84.1372 29.5988 82.4779C28.275 80.5782 26.5223 78.3763 24.5684 75.9219C14.9873 63.8859 0.570526 45.7752 8.19156 27.4291C22.4638 -7.57045 72.4178 18.9318 91.7828 31.1661C93.7193 32.4111 95.7684 34.2187 97.8842 36.085C100.967 38.8043 104.191 41.6485 107.415 43.0593C111.664 43.2299 115.913 43.4847 120.161 43.7395C124.408 43.9942 128.655 44.2488 132.901 44.4194C134.292 44.7449 135.675 45.0652 137.05 45.3836C151.458 48.7202 164.917 51.8369 176.395 58.3505C234.842 92.6721 272.901 127.672 307.9 185.439C312.652 193.213 315.894 201.399 319.195 209.737C321.089 214.517 323.001 219.347 325.229 224.177C333.724 243.885 343.243 264.611 353.094 283.302C354.332 285.78 355.491 288.337 356.652 290.9C359.63 297.477 362.624 304.088 367.027 309.467C368.609 311.729 372.15 312.936 375.543 314.092C377.248 314.673 378.915 315.242 380.278 315.925C384.673 318.188 389.434 320.243 394.232 322.315C401.677 325.529 409.213 328.783 415.619 332.915C435.327 345.147 454.357 359.756 471.687 374.711C475.19 377.845 478.093 381.679 480.993 385.507C483.438 388.736 485.88 391.961 488.677 394.76V397.817C483.241 399.516 477.803 401.215 472.367 402.575C466.452 404.095 460.873 404.691 455.338 405.283C449.744 405.88 444.194 406.473 438.386 408.011C437.654 408.22 436.904 408.437 436.139 408.657C429.451 410.587 421.648 412.839 414.939 413.449C415.278 413.788 415.619 414.127 415.619 414.127C418.894 423.45 432.821 431.465 444.234 438.034C448.213 440.324 451.886 442.438 454.696 444.371C467.95 453.885 480.182 465.439 490.037 478.69C491.731 480.384 493.426 481.994 495.12 483.603C496.824 485.222 498.528 486.841 500.231 488.545C501.382 490.19 502.135 492.074 502.876 493.928C503.665 495.902 504.44 497.841 505.667 499.419V500.438C502.694 499.377 500.651 497.253 498.624 495.147C497.407 493.882 496.196 492.623 494.793 491.604C491.592 489.422 488.393 487.053 485.193 484.683C480.918 481.517 476.643 478.352 472.367 475.633C465.792 471.48 458.688 468.208 451.548 464.92C444.667 461.752 437.753 458.568 431.249 454.565C423.775 449.807 416.638 444.371 409.503 438.935C403.045 434.176 395.913 424.999 391.832 418.205C390.804 416.59 390.157 414.848 389.534 413.17C388.715 410.967 387.939 408.875 386.394 407.331C386.903 402.504 391.592 401.285 396.057 400.125C397.562 399.734 399.042 399.35 400.327 398.836Z" fill="#00546B"></path>
    <path d="M105.714 95.729C109.792 94.71 113.868 94.0278 119.646 94.0278C120.722 95.1056 122.066 96.0228 123.424 96.9489C125.492 98.3601 127.59 99.7921 128.821 101.845C129.576 102.902 130.062 103.959 130.548 105.016C131.157 106.338 131.765 107.66 132.899 108.982C132.899 117.136 130.522 122.572 125.762 125.973C125.762 125.973 125.423 126.311 125.084 126.653C123.726 123.937 122.453 121.222 121.181 118.508C119.905 115.785 118.629 113.062 117.266 110.34C115.943 108.488 114.414 106.79 112.88 105.087C110.474 102.415 108.055 99.7283 106.394 96.4091H105.714V95.729Z" fill="#00546B"></path>
  </symbol>
  <symbol fill="none" xmlns="http://www.w3.org/2000/svg" viewBox="0 0 512 512" id="node">
    <g id="Type=Default, showText=False, showSymbol=True">
      <path id="Shape" fill-rule="evenodd" clip-rule="evenodd" d="M256.453 505.072C249.576 505.072 243.157 503.238 237.196 500.029L176.217 463.808C167.047 458.764 171.632 456.93 174.383 456.013C186.762 451.887 189.054 450.97 201.892 443.634C203.268 442.717 205.102 443.175 206.477 444.092L253.244 472.061C255.078 472.978 257.37 472.978 258.746 472.061L441.685 366.148C443.519 365.231 444.436 363.397 444.436 361.105V149.738C444.436 147.446 443.519 145.612 441.685 144.695L258.746 39.2409C256.912 38.3239 254.619 38.3239 253.244 39.2409L70.3041 144.695C68.4702 145.612 67.5532 147.904 67.5532 149.738V361.105C67.5532 362.939 68.4702 365.231 70.3041 366.148L120.28 395.033C147.331 408.788 164.296 392.741 164.296 376.694V168.078C164.296 165.327 166.588 162.576 169.798 162.576H193.181C195.932 162.576 198.683 164.869 198.683 168.078V376.694C198.683 412.915 178.968 434.005 144.58 434.005C134.035 434.005 125.782 434.005 102.399 422.543L54.2568 395.033C42.3359 388.156 35 375.318 35 361.563V150.197C35 136.442 42.3359 123.604 54.2568 116.727L237.196 10.8142C248.659 4.39527 264.248 4.39527 275.71 10.8142L458.65 116.727C470.571 123.604 477.907 136.442 477.907 150.197V361.563C477.907 375.318 470.571 388.156 458.65 395.033L275.71 500.946C269.75 503.697 262.872 505.072 256.453 505.072ZM312.848 359.729C232.612 359.729 216.106 323.05 216.106 291.872C216.106 289.121 218.398 286.37 221.608 286.37H245.449C248.2 286.37 250.493 288.204 250.493 290.955C254.161 315.255 264.706 327.176 313.307 327.176C351.82 327.176 368.326 318.465 368.326 297.832C368.326 285.911 363.741 277.2 303.678 271.24C253.702 266.196 222.525 255.192 222.525 215.303C222.525 178.165 253.702 156.157 305.971 156.157C364.658 156.157 393.543 176.331 397.211 220.347C397.211 221.722 396.753 223.098 395.836 224.473C394.919 225.39 393.543 226.307 392.168 226.307H368.326C366.034 226.307 363.741 224.473 363.283 222.181C357.781 196.963 343.567 188.71 305.971 188.71C263.789 188.71 258.746 203.382 258.746 214.386C258.746 227.683 264.706 231.809 321.56 239.145C377.955 246.481 404.547 257.026 404.547 296.457C404.089 336.804 371.077 359.729 312.848 359.729Z" fill="#539E43"></path>
    </g>
  </symbol>
  <symbol fill="none" xmlns="http://www.w3.org/2000/svg" viewBox="0 0 512 512" id="photoshop">
    <g clip-path="url(#clip0_327_413)">
      <path d="M0 185.295C0 120.436 0 88.0061 12.6225 63.2331C23.7255 41.4421 41.4421 23.7255 63.2331 12.6225C88.0061 0 120.436 0 185.295 0H326.705C391.564 0 423.994 0 448.767 12.6225C470.558 23.7255 488.275 41.4421 499.378 63.2331C512 88.0061 512 120.436 512 185.295V326.705C512 391.564 512 423.994 499.378 448.767C488.275 470.558 470.558 488.275 448.767 499.378C423.994 512 391.564 512 326.705 512H185.295C120.436 512 88.0061 512 63.2331 499.378C41.4421 488.275 23.7255 470.558 12.6225 448.767C0 423.994 0 391.564 0 326.705V185.295Z" fill="#001E36"></path>
      <path d="M109.714 375.154V150.005C109.714 148.474 110.354 147.599 111.848 147.599C133.893 147.599 155.929 146.286 177.981 146.286C213.763 146.286 252.507 158.521 266.088 195.954C269.288 205.144 270.994 214.552 270.994 224.399C270.994 243.216 266.728 258.751 258.194 271.004C234.357 305.231 193.042 304.699 156.008 304.699V374.935C156.297 377.015 154.525 377.999 152.808 377.999H112.274C110.568 377.999 109.714 377.123 109.714 375.154ZM156.221 189.828V263.346C170.905 264.421 186.272 264.538 200.381 259.845C215.957 255.352 224.488 241.868 224.488 225.711C224.921 211.944 217.419 198.734 204.648 193.766C190.708 187.97 171.268 187.623 156.221 189.828Z" fill="#31A8FF"></path>
      <path d="M404.053 248.821C397.598 245.419 390.724 242.93 383.617 241.423C374.484 239.274 338.465 231.748 338.451 250.582C338.771 261.097 355.462 266.248 362.837 269.252C388.726 278.141 418.024 294.029 417.448 325.968C418.24 365.729 379.716 381.624 346.694 381.628C329.503 381.806 311.594 379.143 295.861 371.764C294.359 370.969 293.392 369.268 293.456 367.536V329.491C293.287 327.966 294.924 326.632 296.204 327.73C311.62 337.052 329.891 341.578 347.724 341.82C355.596 341.82 371.199 341.057 371.08 329.491C371.08 318.391 352.416 313.288 344.976 310.468C334.192 306.618 323.966 301.285 314.579 294.616C301.462 285.259 293.233 270.257 293.457 253.752C293.38 216.314 328.841 199.51 360.776 199.502C375.706 199.379 391.738 200.485 405.635 206.548C407.634 207.136 408.048 209.241 408.04 211.127V246.707C408.167 248.915 405.714 249.667 404.053 248.821Z" fill="#31A8FF"></path>
    </g>
    <defs>
      <clipPath id="clip0_327_413">
        <rect width="512" height="512" fill="white"></rect>
      </clipPath>
    </defs>
  </symbol>
  <symbol fill="none" xmlns="http://www.w3.org/2000/svg" viewBox="0 0 759 668" id="php">
<g id="Type=Default">
<ellipse id="Oval" cx="379.5" cy="333.276" rx="370.605" ry="171.495" fill="url(#paint0_radial_308_6940)"/>
<ellipse id="Oval_2" cx="379.5" cy="333.276" rx="356.129" ry="158.754" fill="#6181B6"/>
<g id="Group">
<path id="Shape" fill-rule="evenodd" clip-rule="evenodd" d="M451.594 384.75L469.256 304.736C473.309 286.644 469.835 273.138 459.412 264.729C449.278 256.575 431.906 252.498 406.427 252.498H375.736L384.422 212.746C384.712 211.217 384.422 209.688 383.264 208.414C382.106 207.14 380.658 206.63 378.921 206.63H336.649C333.753 206.63 331.437 208.414 330.858 210.707L312.038 295.563C310.301 285.879 306.247 277.725 299.299 271.1C286.849 258.614 267.45 252.243 241.102 252.243H159.743C156.847 252.243 154.531 254.027 153.952 256.32L116.023 428.58C115.733 430.109 116.023 431.638 117.181 432.912C118.339 434.186 119.787 434.695 121.524 434.695H164.086C166.981 434.695 169.297 432.912 169.876 430.618L179.141 389.082H210.701C227.204 389.082 241.392 387.553 252.104 384.495C263.396 381.183 273.53 375.832 282.506 368.442C289.744 362.581 295.824 355.955 300.457 348.82L292.929 383.221C292.639 384.75 292.929 386.279 294.087 387.553C295.245 388.827 296.693 389.337 298.43 389.337H340.702C343.598 389.337 345.914 387.553 346.493 385.26L367.339 290.976H396.293C408.743 290.976 412.217 293.014 413.376 294.034C414.244 294.798 415.981 297.856 413.955 307.284L397.162 383.476C396.872 385.005 397.162 386.534 398.32 387.808C399.478 389.082 400.926 389.592 402.663 389.592H446.093C448.699 388.827 451.015 387.044 451.594 384.75V384.75ZM255.868 318.497C253.262 330.473 248.34 339.137 241.102 343.979C233.864 348.82 221.993 351.369 206.358 351.369H187.538L201.146 289.702H225.467C243.418 289.702 250.657 293.014 253.552 295.818C257.316 299.895 258.185 307.794 255.868 318.497V318.497Z" fill="white"/>
<path id="Shape_2" fill-rule="evenodd" clip-rule="evenodd" d="M632.264 271.1C619.814 258.614 600.416 252.243 574.068 252.243H492.129C489.234 252.243 486.918 254.027 486.339 256.32L448.409 428.325C448.12 429.854 448.409 431.383 449.568 432.657C450.726 433.931 452.173 434.441 453.911 434.441H496.472C499.368 434.441 501.684 432.657 502.263 430.363L511.528 388.827H543.088C559.591 388.827 573.778 387.299 584.491 384.241C595.783 380.928 605.917 375.577 614.892 368.187C622.42 362.071 628.79 355.191 633.423 347.801C638.055 340.411 641.53 332.257 643.556 323.338C648.478 301.169 644.714 283.841 632.264 271.1V271.1ZM587.966 318.497C585.36 330.473 580.438 339.137 573.199 343.979C565.961 348.82 554.09 351.369 538.455 351.369H519.635L533.243 289.702H557.564C575.516 289.702 582.754 293.014 585.649 295.818C589.703 299.895 590.571 307.794 587.966 318.497V318.497Z" fill="white"/>
</g>
<g id="Group_2">
<path id="Shape_3" fill-rule="evenodd" clip-rule="evenodd" d="M225.467 284.605C241.681 284.605 252.394 287.154 257.895 292.505C263.396 297.856 264.554 306.775 261.659 319.516C258.764 332.767 252.973 342.45 244.576 348.056C236.18 353.662 223.44 356.465 206.358 356.465H180.589L196.514 284.605H225.467V284.605ZM121.813 429.344H164.375L174.509 383.731H210.99C227.204 383.731 240.233 382.202 250.657 379.144C261.08 376.086 270.345 371.245 279.031 364.11C286.27 358.249 292.06 351.878 296.403 344.998C300.746 338.118 303.931 330.473 305.668 322.064C310.301 301.678 306.827 285.879 295.535 274.412C284.243 262.945 266.292 257.339 241.681 257.339H159.743L121.813 429.344V429.344Z" fill="#000004"/>
<path id="Shape_4" fill-rule="evenodd" clip-rule="evenodd" d="M336.938 211.726H379.21L369.077 257.339H406.716C430.458 257.339 446.672 260.907 455.648 268.297C464.623 275.687 467.229 287.408 463.755 303.717L446.093 383.731H403.242L420.035 307.539C422.062 298.875 421.193 293.014 418.008 289.957C414.823 286.899 407.585 285.115 396.872 285.115H362.996L341.281 383.731H299.009L336.938 211.726V211.726Z" fill="#000004"/>
<path id="Shape_5" fill-rule="evenodd" clip-rule="evenodd" d="M557.564 284.605C573.778 284.605 584.491 287.154 589.992 292.505C595.494 297.856 596.652 306.775 593.756 319.516C590.861 332.767 585.07 342.45 576.674 348.056C568.277 353.662 555.538 356.465 538.455 356.465H512.686L528.611 284.605H557.564V284.605ZM453.911 429.344H496.472L506.606 383.731H543.088C559.302 383.731 572.331 382.202 582.754 379.144C593.177 376.086 602.442 371.245 611.128 364.11C618.367 358.249 624.158 351.878 628.501 344.998C632.844 338.118 636.028 330.473 637.766 322.064C642.398 301.678 638.924 285.879 627.632 274.412C616.34 262.945 598.389 257.339 573.778 257.339H491.84L453.911 429.344V429.344Z" fill="#000004"/>
</g>
</g>
<defs>
<radialGradient id="paint0_radial_308_6940" cx="0" cy="0" r="1" gradientUnits="userSpaceOnUse" gradientTransform="translate(231.408 222.092) scale(1051.18 486.425)">
<stop stop-color="white"/>
<stop offset="0.5" stop-color="#4C6B97"/>
<stop offset="1" stop-color="#231F20"/>
</radialGradient>
</defs>
  </symbol>
  <symbol fill="none" xmlns="http://www.w3.org/2000/svg" viewBox="0 0 1000 1000" id="tg">
<path d="M500 1000C776.142 1000 1000 776.142 1000 500C1000 223.858 776.142 0 500 0C223.858 0 0 223.858 0 500C0 776.142 223.858 1000 500 1000Z" fill="#229ED9"/>
<path d="M408.334 729.166C392.134 729.166 394.888 723.05 389.3 707.625L341.667 550.862L708.334 333.333" fill="#CBD9E8"/>
<path d="M408.333 729.166C420.833 729.166 426.354 723.449 433.333 716.666L500 651.841L416.841 601.695" fill="#AFC9DE"/>
<path d="M416.834 601.708L618.334 750.579C641.329 763.267 657.921 756.696 663.65 729.233L745.671 342.721C754.067 309.054 732.838 293.779 710.838 303.767L229.213 489.479C196.338 502.667 196.534 521.008 223.221 529.179L346.817 567.758L632.954 387.238C646.463 379.046 658.863 383.446 648.688 392.479" fill="white"/>
  </symbol>
  <symbol fill="none" xmlns="http://www.w3.org/2000/svg" viewBox="0 0 113 101" id="react">
    <g clip-path="url(#clip0_14_43)">
      <path d="M92.9055 32.7027C91.703 32.2887 90.4903 31.9051 89.2686 31.5523C89.4738 30.7106 89.6627 29.8792 89.8304 29.0623C92.5837 15.6484 90.7838 4.8418 84.6359 1.28376C78.7415 -2.1272 69.1015 1.4295 59.3658 9.93344C58.4063 10.773 57.4681 11.6368 56.552 12.524C55.9388 11.9341 55.3148 11.3556 54.6802 10.7888C44.4766 1.69618 34.2492 -2.13606 28.108 1.43216C22.2188 4.85376 20.4749 15.0127 22.9537 27.7254C23.2003 28.9844 23.4787 30.237 23.7887 31.4819C22.341 31.8947 20.9441 32.3342 19.6072 32.802C7.64431 36.9881 0.00463867 43.5483 0.00463867 50.3529C0.00463867 57.3808 8.20617 64.43 20.666 68.7044C21.6762 69.0495 22.6947 69.3692 23.7208 69.6634C23.3875 71.0042 23.0917 72.354 22.8336 73.7114C20.4705 86.2035 22.3159 96.1223 28.1892 99.5222C34.2554 103.033 44.4369 99.4248 54.3505 90.7268C55.1544 90.0197 55.9406 89.2925 56.7083 88.546C57.7003 89.5066 58.7188 90.4393 59.7626 91.343C69.3659 99.6365 78.85 102.985 84.7176 99.5762C90.7781 96.055 92.7479 85.3995 90.1906 72.4356C89.9891 71.42 89.7632 70.4094 89.5131 69.4047C90.2281 69.1921 90.9299 68.9733 91.614 68.7456C104.567 64.4384 112.995 57.4748 112.995 50.3529C112.995 43.5235 105.109 36.919 92.9055 32.7027ZM90.0961 64.1474C89.4782 64.3525 88.8444 64.5505 88.1982 64.7432C86.7682 60.1995 84.8385 55.3684 82.4768 50.3764C84.7304 45.5036 86.5859 40.734 87.9758 36.22C89.1317 36.5558 90.2533 36.9097 91.3346 37.2832C101.791 40.8961 108.168 46.2372 108.168 50.3529C108.168 54.7367 101.28 60.4277 90.0961 64.1474ZM85.4556 73.3765C86.5864 79.1087 86.7475 84.2916 85.9985 88.3435C85.3258 91.9844 83.9726 94.4115 82.2989 95.3839C78.7384 97.4526 71.1234 94.7637 62.9109 87.6707C61.94 86.8305 60.9926 85.9634 60.0698 85.0703C63.2538 81.5757 66.4356 77.5131 69.5411 73.0009C75.0035 72.5145 80.164 71.7189 84.8438 70.6331C85.0693 71.5426 85.2732 72.4573 85.4556 73.3765ZM38.5256 95.0264C35.0467 96.2592 32.2758 96.2946 30.6008 95.3254C27.0368 93.2624 25.5551 85.298 27.5761 74.6151C27.8164 73.3527 28.0914 72.0972 28.401 70.8502C33.0292 71.8779 38.1522 72.6168 43.6274 73.0624C46.7541 77.4776 50.0277 81.5358 53.327 85.0894C52.6258 85.7703 51.9081 86.4338 51.1744 87.0793C46.7903 90.9252 42.3973 93.654 38.5256 95.0264ZM22.2276 64.1204C16.718 62.2302 12.1679 59.7738 9.04919 57.0933C6.24649 54.6849 4.8319 52.2932 4.8319 50.3529C4.8319 46.2234 10.9656 40.9564 21.1961 37.3766C22.4377 36.9425 23.7371 36.5328 25.0855 36.1483C26.4996 40.7641 28.3543 45.5904 30.5924 50.4708C28.3251 55.4233 26.444 60.3267 25.0162 64.997C24.0796 64.7278 23.1498 64.4355 22.2276 64.1204ZM27.6909 26.7947C25.5674 15.9031 26.9776 7.68707 30.5267 5.62499C34.3066 3.42868 42.6652 6.56013 51.4754 14.4115C52.0499 14.9247 52.6151 15.4482 53.1707 15.9819C49.8878 19.52 46.6442 23.5481 43.5453 27.9371C38.2312 28.4315 33.1444 29.2253 28.4677 30.2889C28.1795 29.1311 27.9205 27.9661 27.6909 26.7951V26.7947ZM76.43 38.8739C75.3254 36.9589 74.1797 35.0679 72.9939 33.2024C76.599 33.66 80.0532 34.2673 83.2968 35.0098C82.3232 38.1426 81.1094 41.4175 79.6807 44.7753C78.6364 42.7867 77.5526 40.8191 76.43 38.8739ZM56.5542 19.4443C58.7805 21.8652 61.0103 24.5678 63.2035 27.5003C58.7545 27.2895 54.298 27.2886 49.849 27.4977C52.0443 24.5922 54.2931 21.8931 56.5542 19.4443ZM36.5509 38.9071C35.4424 40.8367 34.3788 42.792 33.3612 44.7713C31.9558 41.4255 30.7531 38.1355 29.7711 34.9584C32.9948 34.2346 36.4326 33.6427 40.0148 33.1936C38.8158 35.0705 37.6608 36.9754 36.5509 38.9067V38.9071ZM40.1176 67.8569C36.4168 67.4423 32.9273 66.8811 29.7044 66.1767C30.7019 62.9429 31.9311 59.5829 33.3669 56.1653C34.3886 58.1461 35.4566 60.1026 36.5699 62.0331C37.7148 64.0176 38.9003 65.9614 40.1176 67.8569ZM56.6875 81.6027C54.3995 79.1255 52.1176 76.3848 49.8891 73.4372C52.0527 73.5222 54.2582 73.5657 56.5 73.5657C58.803 73.5657 61.0796 73.5138 63.3204 73.4137C61.1202 76.4145 58.8988 79.1592 56.6875 81.6027ZM79.7262 55.9908C81.2365 59.446 82.5094 62.7883 83.5202 65.9667C80.2443 66.7171 76.7072 67.3214 72.9803 67.7701C74.1745 65.87 75.331 63.9462 76.449 61.9998C77.5857 60.0215 78.6783 58.0179 79.7262 55.9908ZM72.2679 59.5794C70.5563 62.5635 68.7486 65.4909 66.8474 68.3571C63.4037 68.6019 59.9523 68.7235 56.5 68.7216C52.9836 68.7216 49.5634 68.6118 46.2699 68.3974C44.3191 65.5378 42.4769 62.6053 40.747 59.6059H40.7475C39.0258 56.6225 37.4176 53.5745 35.9264 50.4685C37.4138 47.3619 39.0171 44.3124 40.7329 41.3267L40.7325 41.3272C42.4476 38.3407 44.2752 35.4206 46.2112 32.5734C49.5713 32.3182 53.0171 32.1853 56.4995 32.1853H56.5C59.9983 32.1853 63.4484 32.3196 66.8077 32.5765C68.7242 35.4195 70.5401 38.3295 72.252 41.301C73.9735 44.2802 75.598 47.3147 77.123 50.3999C75.6137 53.5166 73.9943 56.5784 72.2679 59.5794ZM82.2252 5.48058C86.0086 7.67068 87.4801 16.5024 85.1029 28.0842C84.9511 28.8231 84.7807 29.5757 84.5953 30.339C79.9071 29.2528 74.8168 28.4452 69.4873 27.9433C66.3827 23.506 63.1655 19.4717 59.936 15.9793C60.7824 15.1604 61.6489 14.3628 62.5348 13.5872C70.8767 6.30142 78.673 3.4247 82.2252 5.48058ZM56.5 40.2263C62.0723 40.2263 66.5897 44.7603 66.5897 50.3529C66.5897 55.9456 62.0723 60.4795 56.5 60.4795C50.9277 60.4795 46.4102 55.9456 46.4102 50.3529C46.4102 44.7603 50.9277 40.2263 56.5 40.2263Z" fill="#00D8FF"></path>
    </g>
    <defs>
      <clipPath id="clip0_14_43">
        <rect width="113" height="101" fill="white"></rect>
      </clipPath>
    </defs>
  </symbol>
  <symbol viewBox="0 0 512 512" fill="none" xmlns="http://www.w3.org/2000/svg" id="ts">
<path d="M40 0H472C494.091 0 512 17.9086 512 40V472C512 494.091 494.091 512 472 512H40C17.9086 512 0 494.091 0 472V40C0 17.9086 17.9086 0 40 0Z" fill="#3178C6"/>
<path d="M301.036 400.95V456.19C310.02 460.794 320.646 464.246 332.912 466.548C345.178 468.85 358.106 470 371.698 470C384.942 470 397.526 468.734 409.446 466.202C421.366 463.67 431.82 459.498 440.802 453.688C449.786 447.876 456.898 440.28 462.14 430.9C467.38 421.522 470 409.928 470 396.118C470 386.106 468.502 377.33 465.508 369.792C462.514 362.254 458.194 355.55 452.55 349.682C446.908 343.812 440.14 338.548 432.252 333.886C424.362 329.226 415.464 324.824 405.558 320.682C398.302 317.688 391.796 314.784 386.036 311.964C380.278 309.144 375.382 306.268 371.352 303.332C367.32 300.398 364.21 297.29 362.022 294.01C359.834 290.73 358.74 287.02 358.74 282.876C358.74 279.078 359.718 275.656 361.676 272.606C363.634 269.556 366.4 266.938 369.97 264.752C373.54 262.564 377.916 260.868 383.1 259.658C388.282 258.45 394.042 257.846 400.376 257.846C404.984 257.846 409.85 258.192 414.974 258.882C420.1 259.572 425.254 260.636 430.438 262.076C435.62 263.514 440.658 265.326 445.554 267.514C450.448 269.7 454.97 272.232 459.116 275.108V223.494C450.708 220.272 441.522 217.884 431.56 216.33C421.598 214.776 410.166 214 397.266 214C384.136 214 371.698 215.41 359.95 218.23C348.202 221.048 337.864 225.45 328.938 231.434C320.012 237.42 312.958 245.044 307.774 254.308C302.592 263.572 300 274.648 300 287.538C300 303.994 304.75 318.034 314.254 329.658C323.756 341.28 338.18 351.12 357.53 359.176C365.132 362.284 372.216 365.332 378.78 368.326C385.346 371.318 391.018 374.424 395.798 377.646C400.578 380.868 404.35 384.378 407.114 388.176C409.878 391.974 411.26 396.29 411.26 401.124C411.26 404.69 410.396 408 408.668 411.05C406.942 414.098 404.32 416.746 400.808 418.99C397.296 421.234 392.918 422.988 387.678 424.254C382.438 425.52 376.304 426.154 369.278 426.154C357.3 426.154 345.438 424.054 333.69 419.852C321.94 415.652 311.056 409.352 301.036 400.95ZM208.964 263.484H280V218H82V263.484H152.689V466H208.964V263.484Z" fill="white"/>
</symbol>

  <symbol fill="none" xmlns="http://www.w3.org/2000/svg" viewBox="0 0 500 500" id="whatsapp">
    <g clip-path="url(#clip0_7_5172)">
      <path d="M11.6161 500C8.80848 500 6.07717 498.89 4.05157 496.841C1.38128 494.141 0.351314 490.219 1.35458 486.553L33.8596 367.855C13.6226 331.261 2.95293 289.864 2.96819 247.841C3.02541 111.179 114.239 0 250.889 0C317.169 0.0267029 379.448 25.8446 426.258 72.6891C473.06 119.537 498.825 181.812 498.806 248.039C498.745 384.705 387.531 495.892 250.889 495.892C250.889 495.892 250.786 495.892 250.782 495.892C210.869 495.876 171.299 486.149 136.067 467.724L14.3131 499.653C13.4204 499.886 12.5125 500 11.6161 500Z" fill="white"></path>
      <path d="M11.6159 489.359L45.2768 366.439C24.5134 330.462 13.5919 289.653 13.6071 247.844C13.6606 117.05 120.098 10.639 250.889 10.639C314.358 10.6657 373.932 35.3697 418.732 80.2075C463.528 125.045 488.19 184.646 488.168 248.035C488.11 378.825 381.657 485.251 250.889 485.251C250.882 485.251 250.893 485.251 250.889 485.251H250.786C211.075 485.236 172.058 475.276 137.402 456.374L11.6159 489.359ZM143.227 413.432L150.433 417.701C180.706 435.668 215.416 445.17 250.813 445.189H250.889C359.585 445.189 448.056 356.734 448.102 248.019C448.121 195.335 427.628 145.793 390.393 108.528C353.154 71.2621 303.643 50.7276 250.962 50.7047C142.178 50.7047 53.7111 139.148 53.6692 247.859C53.6539 285.113 64.0757 321.391 83.8206 352.786L88.5126 360.248L68.5846 433.001L143.227 413.432Z" fill="white"></path>
      <path d="M19.8669 481.079L52.3643 362.407C32.3143 327.678 21.7743 288.276 21.7857 247.921C21.8353 121.654 124.592 18.9282 250.847 18.9282C312.126 18.9549 369.64 42.8044 412.88 86.0898C456.131 129.375 479.934 186.912 479.911 248.1C479.858 374.37 377.098 477.108 250.858 477.108C250.847 477.108 250.862 477.108 250.858 477.108H250.755C212.421 477.092 174.751 467.472 141.296 449.238L19.8669 481.079Z" fill="#64B161"></path>
      <path d="M11.6159 489.359L45.2768 366.439C24.5134 330.462 13.5919 289.653 13.6071 247.844C13.6606 117.05 120.098 10.639 250.889 10.639C314.358 10.6657 373.932 35.3697 418.732 80.2075C463.528 125.045 488.19 184.646 488.168 248.035C488.11 378.825 381.657 485.251 250.889 485.251C250.882 485.251 250.893 485.251 250.889 485.251H250.786C211.075 485.236 172.058 475.276 137.402 456.374L11.6159 489.359ZM143.227 413.432L150.433 417.701C180.706 435.668 215.416 445.17 250.813 445.189H250.889C359.585 445.189 448.056 356.734 448.102 248.019C448.121 195.335 427.628 145.793 390.393 108.528C353.154 71.2621 303.643 50.7276 250.962 50.7047C142.178 50.7047 53.7111 139.148 53.6692 247.859C53.6539 285.113 64.0757 321.391 83.8206 352.786L88.5126 360.248L68.5846 433.001L143.227 413.432Z" fill="white"></path>
      <path fill-rule="evenodd" clip-rule="evenodd" d="M191.586 148.678C187.145 138.805 182.469 138.607 178.242 138.435C174.786 138.287 170.83 138.294 166.882 138.294C162.93 138.294 156.506 139.782 151.074 145.714C145.638 151.646 130.318 165.989 130.318 195.16C130.318 224.335 151.566 252.522 154.53 256.482C157.494 260.438 195.545 322.213 255.806 345.979C305.889 365.731 316.078 361.802 326.95 360.814C337.822 359.826 362.026 346.471 366.966 332.627C371.91 318.784 371.91 306.92 370.426 304.436C368.942 301.968 364.99 300.484 359.062 297.52C353.134 294.556 323.986 280.209 318.55 278.233C313.114 276.253 309.162 275.269 305.21 281.205C301.254 287.133 289.902 300.484 286.442 304.436C282.982 308.4 279.522 308.896 273.594 305.928C267.666 302.956 248.569 296.7 225.918 276.501C208.294 260.788 196.392 241.379 192.932 235.444C189.476 229.515 192.875 226.586 195.538 223.347C200.333 217.514 208.378 207.028 210.354 203.076C212.33 199.116 211.342 195.656 209.862 192.688C208.378 189.724 196.854 160.404 191.586 148.678Z" fill="white"></path>
    </g>
    <defs>
      <clipPath id="clip0_7_5172">
        <rect width="500" height="500" fill="white"></rect>
      </clipPath>
    </defs>
  </symbol>
  <symbol viewBox="0 0 512 512" fill="none" xmlns="http://www.w3.org/2000/svg" id="wp">
<path d="M36.2479 255.001C36.2479 341.591 86.5696 416.422 159.54 451.884L55.1878 165.971C43.0496 193.178 36.2479 223.286 36.2479 255.001ZM402.69 243.962C402.69 216.926 392.979 198.202 384.649 183.629C373.56 165.609 363.166 150.349 363.166 132.329C363.166 112.22 378.418 93.5004 399.901 93.5004C400.871 93.5004 401.791 93.6211 402.736 93.6752C363.816 58.0183 311.962 36.2479 255.009 36.2479C178.584 36.2479 111.345 75.4596 72.2295 134.852C77.3619 135.006 82.1989 135.114 86.3074 135.114C109.189 135.114 144.609 132.337 144.609 132.337C156.401 131.642 157.792 148.963 146.012 150.357C146.012 150.357 134.161 151.752 120.974 152.443L200.637 389.399L248.511 245.818L214.428 152.434C202.648 151.743 191.488 150.349 191.488 150.349C179.7 149.658 181.081 131.634 192.87 132.329C192.87 132.329 228.997 135.106 250.493 135.106C273.371 135.106 308.794 132.329 308.794 132.329C320.595 131.634 321.981 148.955 310.197 150.349C310.197 150.349 298.321 151.743 285.159 152.434L364.215 387.596L386.036 314.68C395.493 284.422 402.69 262.689 402.69 243.962ZM258.847 274.136L193.211 464.863C212.809 470.624 233.534 473.775 255.009 473.775C280.484 473.775 304.915 469.371 327.655 461.374C327.068 460.438 326.535 459.443 326.098 458.361L258.847 274.136ZM446.964 150.045C447.904 157.013 448.437 164.494 448.437 172.54C448.437 194.739 444.291 219.694 431.803 250.897L364.981 444.095C430.018 406.17 473.762 335.71 473.762 255.005C473.766 216.971 464.051 181.206 446.964 150.045ZM255.009 0C114.401 0 0 114.392 0 255.001C0 395.626 114.401 510.014 255.009 510.014C395.614 510.014 510.031 395.626 510.031 255.001C510.027 114.392 395.614 0 255.009 0ZM255.009 498.326C120.849 498.326 11.6927 389.17 11.6927 255.001C11.6927 120.84 120.844 11.6927 255.009 11.6927C389.166 11.6927 498.313 120.84 498.313 255.001C498.313 389.17 389.166 498.326 255.009 498.326Z" fill="#21759b"/>
  </symbol>
  <symbol viewBox="0 0 117 87" fill="none" xmlns="http://www.w3.org/2000/svg" id="sass">
<g clip-path="url(#clip0_14_47)">
<path d="M100.673 50.0766C96.603 50.0975 93.0653 51.0694 90.1035 52.5063C89.0162 50.3721 87.9295 48.4708 87.738 47.076C87.5246 45.4493 87.2691 44.4561 87.5246 42.5122C87.7805 40.5683 88.9312 37.8001 88.9098 37.589C88.8887 37.3778 88.6538 36.3846 86.3098 36.3637C83.9658 36.3424 81.9413 36.8073 81.7068 37.42C81.4724 38.0326 81.025 39.4273 80.7266 40.8637C80.3216 42.9771 76.0386 50.5198 73.5881 54.471C72.7993 52.9291 72.1174 51.5765 71.968 50.499C71.755 48.8722 71.4991 47.879 71.755 45.9351C72.0109 43.9912 73.1617 41.2235 73.1402 41.0119C73.1187 40.8007 72.8843 39.8075 70.5403 39.7866C68.1958 39.7653 66.1713 40.2302 65.9373 40.8429C65.7029 41.4559 65.4469 42.8923 64.957 44.2871C64.4667 45.6818 58.7769 58.275 57.2852 61.5285C56.6824 62.8453 56.0501 64.1487 55.3886 65.4376C55.3886 65.4376 55.3672 65.501 55.3032 65.6066C55.0954 66.0107 54.8824 66.4122 54.6643 66.811V66.8318C54.3444 67.4028 54.0035 67.9307 53.833 67.9307C53.705 67.9307 53.4706 66.4095 53.8755 64.3387C54.7278 59.9652 56.7524 53.1615 56.7313 52.9291C56.7313 52.8022 57.1148 51.6191 55.4101 51.006C53.7475 50.3934 53.1511 51.4075 53.0017 51.4075C52.8527 51.4075 52.7458 51.7668 52.7458 51.7668C52.7458 51.7668 54.6003 44.118 49.2085 44.118C45.8417 44.118 41.1958 47.7734 38.8943 51.0694C36.278 52.4811 33.6639 53.8968 31.052 55.3166C29.7953 56.0139 28.4951 56.7113 27.2803 57.3661C27.1949 57.2818 27.1099 57.1758 27.0244 57.0915C20.5034 50.1822 8.442 45.3012 8.95339 36.0257C9.14534 32.6449 10.3171 23.7705 32.1178 12.9947C50.0608 4.22583 64.3392 6.65549 66.8111 12.0436C70.3484 19.7349 59.1608 34.0183 40.6204 36.0887C33.5455 36.8708 29.8373 34.1661 28.9 33.152C27.9197 32.0953 27.7703 32.0318 27.4079 32.2435C26.8115 32.5606 27.1949 33.5113 27.4079 34.0605C27.9622 35.4969 30.2422 38.0326 34.0994 39.2796C37.5091 40.378 45.7988 40.991 55.8361 37.1454C67.0666 32.8348 75.8466 20.8546 73.2682 10.8183C70.6893 0.633908 53.641 -2.72556 37.5091 2.95799C27.9197 6.33921 17.52 11.6634 10.0402 18.594C1.15363 26.834 -0.253039 33.997 0.322334 36.9976C2.38984 47.6465 17.2006 54.5771 23.1248 59.7114C22.8263 59.8804 22.5489 60.0286 22.3149 60.1555C19.3526 61.6132 8.05811 67.4658 5.24523 73.6568C2.04891 80.6716 5.75708 85.7009 8.20756 86.3765C15.8154 88.4686 23.6362 84.7076 27.8342 78.4953C32.0323 72.2834 31.5209 64.2119 29.5818 60.5144C29.5604 60.4722 29.5393 60.4296 29.4964 60.3875C30.2637 59.9439 31.052 59.479 31.8194 59.0354C33.2296 58.2088 34.6578 57.4126 36.1029 56.6474C35.3781 58.6126 34.8452 60.958 34.5897 64.3387C34.2698 68.3113 35.9105 73.4665 38.063 75.4947C39.0223 76.3828 40.1515 76.4037 40.8763 76.4037C43.3908 76.4037 44.5205 74.3329 45.7778 71.8819C47.3119 68.8818 48.6971 65.3954 48.6971 65.3954C48.6971 65.3954 46.971 74.8191 51.6595 74.8191C53.3641 74.8191 55.0902 72.6214 55.8575 71.5017V71.5226C55.8575 71.5226 55.9 71.4592 55.9855 71.3114C56.156 71.0368 56.2624 70.8674 56.2624 70.8674V70.8257C56.9443 69.6421 58.4789 66.9587 60.7589 62.5004C63.6998 56.7534 66.5342 49.5696 66.5342 49.5696C66.5342 49.5696 66.7901 51.3232 67.6634 54.239C68.1753 55.9505 69.2401 57.831 70.0929 59.648C69.411 60.5991 68.9846 61.127 68.9846 61.127L69.0061 61.1483C68.4518 61.8665 67.8554 62.6481 67.1945 63.4094C64.8716 66.1558 62.1016 69.3045 61.7178 70.2126C61.2699 71.2901 61.3768 72.0722 62.2296 72.7062C62.8475 73.1711 63.9553 73.234 65.085 73.1711C67.1735 73.0229 68.6437 72.5158 69.3681 72.1991C70.4978 71.7976 71.819 71.1846 73.0548 70.276C75.3352 68.6067 76.72 66.2192 76.5925 63.0714C76.5285 61.3386 75.9531 59.6059 75.2498 57.9787C75.4632 57.6833 75.6547 57.3874 75.8681 57.0915C79.4693 51.8724 82.2612 46.1462 82.2612 46.1462C82.2612 46.1462 82.5171 47.8998 83.3905 50.8161C83.8168 52.2951 84.6907 53.901 85.4575 55.4643C82.0693 58.1903 79.9807 61.3594 79.2349 63.4302C77.8926 67.2759 78.9365 69.0082 80.9185 69.4097C81.8133 69.6 83.092 69.1772 84.0298 68.7757C85.2231 68.3956 86.6297 67.7408 87.9724 66.7684C90.2529 65.0995 92.4474 62.775 92.3195 59.6272C92.2555 58.1903 91.8721 56.7743 91.3392 55.4009C94.2161 54.2182 97.9242 53.563 102.655 54.1122C112.799 55.2953 114.802 61.5706 114.418 64.2123C114.035 66.8531 111.904 68.29 111.201 68.7336C110.497 69.1777 110.263 69.3254 110.327 69.6421C110.412 70.107 110.753 70.0862 111.35 70.0014C112.181 69.8537 116.678 67.8672 116.869 63.0075C117.189 56.7956 111.222 50.0132 100.673 50.0766ZM22.4214 76.2346C19.0542 79.8687 14.3662 81.2421 12.3417 80.0803C10.1681 78.8333 11.0204 73.4665 15.1545 69.6213C17.669 67.2759 20.9083 65.0991 23.0608 63.7683C23.5507 63.4724 24.2755 63.0501 25.1493 62.5217C25.2983 62.437 25.3838 62.3948 25.3838 62.3948L25.8952 62.0776C27.4078 67.5713 25.9591 72.4103 22.4214 76.2346ZM46.9285 59.7114C45.7563 62.543 43.3058 69.7903 41.8141 69.3888C40.5354 69.0508 39.7466 63.5571 41.5582 58.1269C42.4745 55.4009 44.4136 52.147 45.5433 50.8796C47.3759 48.8509 49.4005 48.1744 49.8904 48.9991C50.5087 50.0766 47.6529 57.9365 46.9285 59.7114ZM67.152 69.3041C66.6617 69.5578 66.1932 69.7269 65.9798 69.6C65.8308 69.5153 66.1932 69.1772 66.1932 69.1772C66.1932 69.1772 68.7292 66.473 69.7305 65.2473C70.3063 64.5291 70.9877 63.684 71.7125 62.7329V63.0075C71.7125 66.2405 68.5583 68.4169 67.1516 69.3041H67.152ZM82.7511 65.7756C82.3887 65.5219 82.4527 64.6768 83.6674 62.0355C84.1363 61.0001 85.2441 59.2678 87.1411 57.5985C87.3541 58.2746 87.5035 58.9298 87.4821 59.5424C87.4606 63.6205 84.5202 65.1417 82.7511 65.7756Z" fill="#CD6799"/>
</g>
<defs>
<clipPath id="clip0_14_47">
<rect width="117" height="87" fill="white"/>
</clipPath>
</defs>
</symbol>
</svg>