<svg width="65" height="65" viewBox="0 0 65 65" fill="none" xmlns="http://www.w3.org/2000/svg">
<path fill-rule="evenodd" clip-rule="evenodd" d="M63.9076 36.2149C63.6865 36.0338 63.4239 35.9104 63.1434 35.8556C61.4936 37.5 59.4804 39.232 57.6929 40.3966C56.8682 40.9446 55.8305 41.2181 55.1439 41.2181C53.5627 41.2181 52.8757 39.7105 52.6694 37.3136C52.3941 34.0952 52.209 30.2394 52.209 24.2807C52.209 18.1689 50.8219 14.0147 47.1272 13.6888C46.9711 13.6753 46.8131 13.6654 46.6488 13.6654C44.3805 13.6654 43.2805 14.8299 41.837 17.7748C40.6002 20.3084 38.6754 24.0067 35.1022 30.9924C32.0093 37.0202 28.5729 42.3629 25.6163 46.0606C24.793 47.0853 24.1425 47.7894 23.5309 48.1912C23.1224 48.4602 22.7301 48.5947 22.3176 48.5947C21.1507 48.5947 20.2998 47.6107 20.0155 45.3176C19.9478 44.7728 19.9117 44.1544 19.9117 43.4579C19.9117 38.7319 21.6992 31.0619 24.7867 19.7609C27.0549 11.5429 26.093 5.92764 21.1439 5.92764H21.0884L21.0853 5.92855C19.9645 5.94209 19.036 6.34743 18.1404 7.0525C17.2593 7.74629 16.3773 9.2449 15.5539 11.2604C14.6309 13.5281 8.98714 24.8476 0.00630718 30.6791C-0.0993178 32.8963 1.15554 35.1117 3.69867 35.3523C6.01429 35.5717 7.65735 34.5958 9.77436 33.1744C9.49059 34.4397 9.21103 35.706 8.93568 36.9733L8.64138 38.3211C8.3622 39.5912 8.14871 40.8749 8.00176 42.1669C6.73471 53.4869 11.9812 59.0733 18.1255 59.0733C19.1524 59.0733 20.1703 58.9514 21.1801 58.6941C27.95 56.977 34.468 49.2118 42.1814 31.3354C42.064 33.28 42.0523 35.0955 42.1362 36.7814C42.6441 47.0266 46.6966 50.1006 52.422 50.1006C56.7522 50.1006 60.807 47.8409 62.869 45.0328C64.3811 43.0467 64.9995 40.8548 64.9995 39.1422C64.9995 37.8133 64.5779 36.7521 63.9072 36.2136" fill="#EA5252"/>
</svg>
